<svg width="42" height="36" viewBox="0 0 42 36" fill="none" xmlns="http://www.w3.org/2000/svg">
<path d="M39.0281 6.3108H30.1448V3.7037C30.1425 1.90464 28.6143 0.447052 26.7281 0.444824H14.4281C12.542 0.447052 11.0138 1.90464 11.0115 3.7037V6.3108H2.12812C0.99602 6.3108 0.078125 7.18631 0.078125 8.26613V22.7745C0.0824626 23.6013 0.628662 24.3368 1.44479 24.6146V33.6854C1.44479 34.7652 2.36269 35.6407 3.49479 35.6407H37.6615C38.7936 35.6407 39.7115 34.7652 39.7115 33.6854V24.6153C40.5276 24.3371 41.0741 23.6013 41.0781 22.7745V8.26613C41.0781 7.18631 40.1602 6.3108 39.0281 6.3108ZM12.3781 3.7037C12.3781 2.62388 13.296 1.74838 14.4281 1.74838H26.7281C27.8602 1.74838 28.7781 2.62388 28.7781 3.7037V6.3108H27.4115V3.7037C27.4115 3.34376 27.1055 3.05193 26.7281 3.05193H14.4281C14.0508 3.05193 13.7448 3.34376 13.7448 3.7037V6.3108H12.3781V3.7037ZM26.0448 6.3108H15.1115V4.35548H26.0448V6.3108ZM38.3448 33.6854C38.3448 34.0453 38.0388 34.3372 37.6615 34.3372H3.49479C3.11742 34.3372 2.81146 34.0453 2.81146 33.6854V24.8387L17.8448 26.8163V28.4712C17.8448 29.551 18.7627 30.4265 19.8948 30.4265H21.2615C22.3936 30.4265 23.3115 29.551 23.3115 28.4712V26.8163L38.3448 24.8387V33.6854ZM21.9448 28.4712C21.9448 28.8311 21.6388 29.1229 21.2615 29.1229H19.8948C19.5174 29.1229 19.2115 28.8311 19.2115 28.4712V24.5605C19.2115 24.2006 19.5174 23.9087 19.8948 23.9087H21.2615C21.6388 23.9087 21.9448 24.2006 21.9448 24.5605V28.4712ZM39.7115 22.7745C39.7118 23.0994 39.4612 23.375 39.1239 23.4205L38.9344 23.4454L23.3115 25.5003V24.5605C23.3115 23.4807 22.3936 22.6052 21.2615 22.6052H19.8948C18.7627 22.6052 17.8448 23.4807 17.8448 24.5605V25.5003L2.03303 23.4205C1.6957 23.3754 1.44446 23.0998 1.44479 22.7745V8.26613C1.44479 7.90619 1.75076 7.61435 2.12812 7.61435H39.0281C39.4055 7.61435 39.7115 7.90619 39.7115 8.26613V22.7745Z" fill="#36B3A8" fill-opacity="0.9"/>
</svg>
