<svg width="37" height="40" viewBox="0 0 37 40" fill="none" xmlns="http://www.w3.org/2000/svg">
<path d="M35.8085 37.9136H34.6849V3.42073C34.6849 3.05663 34.3831 2.76165 34.0108 2.76165H21.4265C21.0541 2.76165 20.7523 3.05663 20.7523 3.42073V6.27681H19.4041V3.42073C19.4041 3.05663 19.1022 2.76165 18.7299 2.76165H15.8085V0.784327C15.8085 0.420223 15.5066 0.125244 15.1344 0.125244C14.7621 0.125244 14.4602 0.420223 14.4602 0.784327V2.76165H11.5389C11.1666 2.76165 10.8648 3.05663 10.8648 3.42073V6.27681H8.84227C8.46992 6.27681 8.16813 6.57179 8.16813 6.93589V12.4284H2.55016C2.17781 12.4284 1.87602 12.7234 1.87602 13.0875V37.9135H0.752266C0.379922 37.9135 0.078125 38.2085 0.078125 38.5726C0.078125 38.9367 0.38 39.2318 0.752266 39.2318H35.8085C36.1809 39.2318 36.4827 38.9368 36.4827 38.5727C36.4827 38.2086 36.1808 37.9136 35.8085 37.9136ZM12.213 4.07982H18.0556V6.27681H12.213V4.07982ZM9.96578 37.9136H9.51633V36.8151C9.51633 36.451 9.21445 36.156 8.84219 36.156C8.46992 36.156 8.16805 36.451 8.16805 36.8151V37.9136H7.71859V35.7166H9.96578V37.9136ZM14.4602 20.9967V22.1305V37.9136H11.3141V35.0575C11.3141 34.6934 11.0122 34.3985 10.6399 34.3985H7.04445C6.67211 34.3985 6.37031 34.6934 6.37031 35.0575V37.9136H3.22422V13.7466H14.4602V20.9967ZM15.1343 12.4284H9.51633V7.59505H20.7523V20.3376H15.8085V18.1406H17.831C18.2034 18.1406 18.5052 17.8456 18.5052 17.4815C18.5052 17.1174 18.2033 16.8224 17.831 16.8224H15.8085V14.6254H17.831C18.2034 14.6254 18.5052 14.3305 18.5052 13.9664C18.5052 13.6023 18.2033 13.3073 17.831 13.3073H15.8085V13.0876C15.8085 12.7234 15.5066 12.4284 15.1343 12.4284ZM27.0445 37.9136H15.8085V22.1305V21.6558H27.0445V37.9136ZM33.3366 37.9136H28.3927V20.9967V20.1178C28.3927 19.7537 28.0909 19.4588 27.7186 19.4588C27.3463 19.4588 27.0445 19.7537 27.0445 20.1178V20.3375H25.6962V20.1178C25.6962 19.7537 25.3943 19.4588 25.022 19.4588C24.6498 19.4588 24.3479 19.7537 24.3479 20.1178V20.3375H22.1007V6.93597V4.07982H33.3366V37.9136H33.3366Z" fill="#36B3A8" fill-opacity="0.9"/>
</svg>
