<svg width="40" height="40" viewBox="0 0 40 40" fill="none" xmlns="http://www.w3.org/2000/svg">
<path d="M35.5382 33.6797L34.881 33.422C38.1859 29.8278 40 25.211 40 20.3589C40 16.3894 38.7725 12.5699 36.536 9.35915C36.5089 9.30698 36.4753 9.26001 36.4362 9.21899C35.4565 7.83842 34.2902 6.5722 32.9517 5.45911C32.686 5.23814 32.2875 5.26961 32.0615 5.52938C31.8355 5.78915 31.8677 6.17892 32.1333 6.39981C33.207 7.29277 34.1627 8.2909 34.9918 9.37114C33.6549 9.88197 32.0502 10.3146 30.2588 10.6564C29.7643 9.21586 29.1565 7.87279 28.442 6.66103C27.4789 5.02764 26.3712 3.71238 25.1639 2.74503C27.0429 3.27022 28.8328 4.08397 30.4754 5.16879C30.7645 5.35951 31.157 5.28535 31.3523 5.00274C31.5475 4.72021 31.4715 4.3364 31.1824 4.14545C27.8747 1.96053 24.0078 0.805664 20 0.805664C14.6577 0.805664 9.63539 2.83951 5.85797 6.53278C2.08031 10.2258 0 15.1361 0 20.3589C0 25.2173 1.81656 29.8346 5.12687 33.4302L4.47797 33.6787C4.23898 33.7631 2.20687 34.5555 2.20687 37.0816V39.2941C2.20687 39.6352 2.48953 39.9122 2.83844 39.9122H6.47156H7.03711H7.71078H10.9422H12.1348C12.1653 39.9122 12.1951 39.9094 12.2244 39.9052C12.2537 39.9094 12.2834 39.9122 12.3139 39.9122H14.8837C15.2327 39.9122 15.5153 39.6358 15.5153 39.2947C15.5153 38.9536 15.2326 38.6773 14.8837 38.6773H12.9455V36.5268C12.9455 34.258 14.7683 33.6054 14.8419 33.5801C14.8516 33.5769 14.8613 33.5734 14.871 33.5697L17.9466 32.3921C17.9533 32.3991 17.9595 32.4064 17.9666 32.4131L19.6011 33.9696C19.7191 34.0819 19.8773 34.1447 20.0418 34.1447C20.0451 34.1447 20.0484 34.1447 20.0517 34.1447C20.2198 34.1421 20.38 34.0741 20.4965 33.9557L22.0659 32.3636L25.1374 33.5678C25.1486 33.5723 25.1559 33.575 25.1673 33.5787C25.2449 33.6054 27.068 34.2582 27.068 36.5268V38.6773H22.4484H17.5648H16.8577C16.5088 38.6773 16.2261 38.9537 16.2261 39.2947C16.2261 39.6358 16.5088 39.9122 16.8577 39.9122H17.5648H22.4484H27.6996H27.6997H27.6998H28.5055H29.071H29.7448H32.9761H37.1749C37.5238 39.9122 37.8065 39.6314 37.8065 39.2904V37.0816C37.8066 34.5652 35.7898 33.7691 35.5382 33.6797ZM33.6272 32.9305L33.0046 32.6863V32.335C33.6927 31.9405 34.2215 31.3086 34.4727 30.5549C35.3916 30.4839 36.1173 29.7318 36.1173 28.8156C36.1173 28.2707 35.8605 27.7837 35.4593 27.4631V26.3657C35.4593 24.2498 33.8352 22.4989 31.7421 22.2391C31.7659 21.8205 31.7824 21.3987 31.7904 20.9764H38.7252C38.5734 25.4459 36.7776 29.6677 33.6272 32.9305ZM31.347 31.5404H30.771C29.655 31.5404 28.7471 30.6528 28.7471 29.5619V27.9281C29.5698 27.8408 31.0271 27.5596 32.1498 26.6429C32.4013 27.0646 32.7905 27.5207 33.3709 27.787V29.5618C33.3709 30.6528 32.463 31.5404 31.347 31.5404ZM31.7416 32.7513V33.0937L31.0378 33.8075L30.3766 33.1779V32.7513C30.506 32.7665 30.6375 32.7753 30.7711 32.7753H31.3471C31.4807 32.7753 31.612 32.7665 31.7416 32.7513ZM28.1176 26.7333C28.1169 26.7333 28.1162 26.7333 28.1155 26.7333C28.0938 26.7333 28.0722 26.7344 28.051 26.7365C28.0442 26.7372 28.0376 26.7386 28.0308 26.7395C28.0166 26.7413 28.0023 26.743 27.9884 26.7458C27.9789 26.7477 27.9698 26.7505 27.9604 26.7528C27.9495 26.7555 27.9386 26.7578 27.928 26.761C27.9212 26.7631 27.9147 26.7659 27.9079 26.7682V26.3658C27.9079 24.7522 29.2506 23.4395 30.9011 23.4395H31.2031C32.8535 23.4395 34.196 24.7522 34.196 26.3658V26.7632C34.1841 26.7594 34.1721 26.7565 34.1599 26.7535C34.1541 26.7519 34.1484 26.7501 34.1425 26.7486C33.262 26.5529 32.9741 25.4041 32.972 25.3953C32.9172 25.1587 32.7257 24.9754 32.4825 24.9268C32.2393 24.8781 31.9897 24.9733 31.8442 25.1699C30.7005 26.7156 28.151 26.7333 28.1176 26.7333ZM34.634 29.2318V28.3997C34.767 28.4925 34.8541 28.6442 34.8541 28.8158C34.8541 28.9873 34.767 29.139 34.634 29.2318ZM35.733 10.4103C37.5625 13.1734 38.6101 16.3901 38.725 19.7414H31.7901C31.7388 16.962 31.3416 14.2813 30.6332 11.84C32.575 11.4629 34.3063 10.981 35.733 10.4103ZM30.5268 19.7416H24.0627C24.062 19.7415 24.0613 19.7416 24.0607 19.7416C23.1991 18.8103 21.9878 18.1951 20.6316 18.0927V12.7828C23.7309 12.7526 26.7217 12.5007 29.3864 12.0628C30.0837 14.4238 30.475 17.031 30.5268 19.7416ZM24.9555 26.1894C24.9555 26.5526 24.7045 26.8588 24.3634 26.953V25.4256C24.7045 25.5199 24.9555 25.8262 24.9555 26.1894ZM20.6316 2.07487C23.1449 2.33731 25.5096 4.1605 27.3476 7.27772C27.9926 8.37156 28.5464 9.58004 29.003 10.8764C26.4566 11.284 23.5988 11.5186 20.6315 11.5477V2.07487H20.6316ZM20.231 19.311C22.3823 19.311 24.1325 21.0222 24.1325 23.1256V23.8801C24.1283 23.8768 24.1238 23.8739 24.1195 23.8706C24.1104 23.8636 24.1011 23.8567 24.0915 23.8503C24.0841 23.8452 24.0764 23.8406 24.0687 23.8358C24.0593 23.8299 24.0499 23.8241 24.0401 23.8188C24.0311 23.8138 24.0218 23.8095 24.0126 23.805C24.0037 23.8007 23.995 23.7963 23.9859 23.7924C23.9748 23.7875 23.9634 23.7836 23.952 23.7794C23.9441 23.7765 23.9363 23.7735 23.9284 23.7709C23.9156 23.7668 23.9025 23.7635 23.8895 23.7602C23.8837 23.7586 23.878 23.7567 23.872 23.7553C22.6723 23.4886 22.2922 21.9592 22.289 21.946C22.2342 21.7093 22.0427 21.526 21.7995 21.4774C21.5564 21.4286 21.3067 21.5239 21.1613 21.7205C19.6823 23.7195 16.4152 23.74 16.372 23.74C16.372 23.74 16.3719 23.74 16.3719 23.74C16.371 23.74 16.3704 23.74 16.3696 23.74C16.3479 23.74 16.3263 23.741 16.3052 23.7431C16.2985 23.7439 16.2921 23.7452 16.2855 23.7461C16.2712 23.748 16.2566 23.7497 16.2426 23.7524C16.2336 23.7542 16.2248 23.757 16.2159 23.7591C16.2046 23.7619 16.1931 23.7643 16.1822 23.7676C16.172 23.7707 16.1621 23.7748 16.1521 23.7784C16.143 23.7817 16.1334 23.7846 16.1244 23.7882C16.1128 23.793 16.1018 23.7987 16.0908 23.804C16.0836 23.8074 16.0763 23.8104 16.0693 23.8141C16.0579 23.8201 16.0473 23.827 16.0363 23.8335C16.0301 23.8374 16.0235 23.8409 16.0173 23.8449C16.0071 23.8516 15.9975 23.8591 15.9877 23.8664C15.9813 23.8711 15.9748 23.8754 15.9686 23.8804C15.9628 23.885 15.9574 23.8903 15.9517 23.8952V23.1255C15.9517 21.0221 17.7019 19.311 19.8532 19.311H20.231ZM9.4732 19.7415C9.525 17.0304 9.91648 14.4228 10.6139 12.0615C13.2823 12.5 16.2764 12.7525 19.3684 12.7829V18.0991C18.0445 18.2203 16.8642 18.8315 16.0201 19.7456C15.9971 19.7432 15.9738 19.7416 15.9501 19.7416H9.4732V19.7415ZM15.738 25.4193V26.9595C15.3839 26.8739 15.1204 26.5617 15.1204 26.1894C15.1203 25.8172 15.3839 25.505 15.738 25.4193ZM19.3684 2.07487V11.5477C16.4081 11.5184 13.5481 11.2829 10.9977 10.8744C11.4541 9.57889 12.0077 8.37117 12.6524 7.27772C14.4904 4.1605 16.8551 2.33731 19.3684 2.07487ZM14.8291 2.75045C13.6246 3.71742 12.5192 5.03062 11.558 6.66095C10.8437 7.87241 10.2361 9.21487 9.74164 10.655C7.9525 10.3137 6.35039 9.88204 5.01602 9.3732C7.43492 6.22749 10.8646 3.86499 14.8291 2.75045ZM4.27266 10.4132C5.69578 10.9818 7.42742 11.4618 9.36734 11.8385C8.65852 14.2802 8.26125 16.9615 8.20984 19.7415H1.275C1.3918 16.3116 2.47734 13.1176 4.27266 10.4132ZM8.34242 32.7514C8.47188 32.7666 8.60336 32.7753 8.73695 32.7753H9.31305C9.44648 32.7753 9.57797 32.7666 9.70734 32.7513V33.0936L9.00375 33.8074L8.34242 33.1778V32.7514ZM9.31305 31.5404H8.73695C7.62094 31.5404 6.71305 30.6528 6.71305 29.5618V27.9288C7.53562 27.8418 8.99234 27.5602 10.1158 26.6429C10.3673 27.0647 10.7564 27.5208 11.3368 27.7872V29.5619C11.3367 30.6528 10.4289 31.5404 9.31305 31.5404ZM10.9381 25.3953C10.8834 25.1586 10.6919 24.9753 10.4487 24.9268C10.2055 24.878 9.95578 24.9732 9.81047 25.1698C8.66594 26.7164 6.11438 26.7334 6.08359 26.7334C6.08281 26.7334 6.08219 26.7334 6.08148 26.7334C6.05977 26.7334 6.0382 26.7344 6.01703 26.7365C6.01039 26.7373 6.00398 26.7386 5.99734 26.7395C5.98305 26.7413 5.96852 26.7431 5.95445 26.7458C5.94547 26.7477 5.93672 26.7504 5.92773 26.7525C5.91648 26.7553 5.90508 26.7577 5.89406 26.761C5.88727 26.7631 5.88086 26.7659 5.87414 26.7682V26.3658C5.87414 24.7522 7.2168 23.4394 8.86727 23.4394H9.16937C10.8198 23.4394 12.1623 24.7522 12.1623 26.3658V26.7632H12.1621C12.15 26.7593 12.1374 26.7564 12.1251 26.7533C12.1195 26.7519 12.1141 26.75 12.1085 26.7487C11.2282 26.553 10.9402 25.4039 10.9381 25.3953ZM1.27492 20.9764H8.20969C8.21758 21.4017 8.23438 21.8264 8.25836 22.2477C6.19891 22.5373 4.61078 24.2732 4.61078 26.3657V27.4583C4.2057 27.7788 3.94594 28.2679 3.94594 28.8156C3.94594 29.7386 4.68289 30.4947 5.61156 30.556C5.86281 31.3092 6.39141 31.9406 7.07922 32.335V32.6828L6.3893 32.9469C3.22828 29.6816 1.4268 25.4555 1.27492 20.9764ZM5.44977 28.3859V29.2454C5.30523 29.1543 5.20906 28.9959 5.20906 28.8158C5.20906 28.6355 5.30523 28.4771 5.44977 28.3859ZM11.6822 36.5269V38.6773H10.942H7.7107H7.03703H6.47156H3.47008V37.0816C3.47008 35.3601 4.84664 34.8612 4.90016 34.8426C4.90992 34.8394 4.91969 34.836 4.9293 34.8322L7.31141 33.9202L8.57719 35.1255C8.69516 35.2378 8.85328 35.3006 9.01781 35.3006C9.02109 35.3006 9.02445 35.3006 9.02781 35.3005C9.19586 35.298 9.35602 35.2299 9.4725 35.1116L10.6681 33.8985L12.146 34.4778C11.8658 35.0385 11.6822 35.7176 11.6822 36.5269ZM17.7758 31.1313L14.4236 32.4147C13.9967 32.5583 13.4059 32.8895 12.8819 33.4358L10.9704 32.6863V32.3352C11.6586 31.9406 12.1873 31.3087 12.4386 30.5549C13.3575 30.4839 14.0834 29.7318 14.0834 28.8156C14.0834 28.2707 13.8264 27.7837 13.4252 27.4631V26.3657C13.4252 24.1874 11.7041 22.3959 9.52187 22.2199C9.49781 21.8079 9.48117 21.3924 9.47312 20.9763H15.1809C14.8656 21.6288 14.6884 22.3571 14.6884 23.1254V24.5662C14.184 24.9368 13.857 25.5263 13.857 26.1894C13.857 27.2977 14.7709 28.2008 15.9005 28.2177C16.197 29.1965 16.8797 30.0142 17.7756 30.5014V31.1313H17.7758ZM12.5999 29.2318V28.3994C12.733 28.4923 12.8202 28.6441 12.8202 28.8157C12.8202 28.9873 12.733 29.139 12.5999 29.2318ZM21.0626 31.5622C21.0626 31.563 21.0626 31.5639 21.0626 31.5645V31.6019L20.0277 32.6517L19.0389 31.7101V30.9332C19.251 30.9678 19.4685 30.9867 19.6906 30.9867H20.4111C20.633 30.9867 20.8505 30.9678 21.0626 30.9333V31.5622ZM20.4111 29.7518H19.6906C18.2077 29.7518 17.0012 28.5724 17.0012 27.1225V24.9425C18.0091 24.8517 20.0023 24.5092 21.4581 23.2314C21.7654 23.7999 22.2805 24.4599 23.1003 24.8023V27.1224C23.1002 28.5724 21.8939 29.7518 20.4111 29.7518ZM27.1355 33.44C26.6115 32.8923 26.02 32.5599 25.5922 32.4156L22.3256 31.1348V30.5014C23.2218 30.0141 23.9044 29.1962 24.2007 28.2171C25.3184 28.1869 26.2184 27.2892 26.2184 26.1895C26.2184 25.5302 25.895 24.9436 25.3955 24.5727V23.1255C25.3955 22.3573 25.2184 21.6289 24.903 20.9764H30.5266C30.5184 21.3942 30.5017 21.8114 30.4773 22.2253C28.3284 22.4337 26.6445 24.211 26.6445 26.3657V27.4584C26.2395 27.7789 25.9798 28.268 25.9798 28.8157C25.9798 29.7388 26.7168 30.4949 27.6455 30.556C27.8967 31.3093 28.4254 31.9406 29.1132 32.3351V32.6828L27.1355 33.44ZM27.484 28.3859V29.2454C27.3394 29.1543 27.2433 28.9959 27.2433 28.8158C27.2433 28.6355 27.3395 28.477 27.484 28.3859ZM36.5435 38.6773H32.9762H29.745H29.0712H28.5057H28.3313V36.5268C28.3313 35.7208 28.1494 35.044 27.8709 34.4847L29.3456 33.9201L30.6112 35.1254C30.7292 35.2377 30.8873 35.3006 31.052 35.3006C31.0552 35.3006 31.0586 35.3006 31.0619 35.3005C31.2299 35.298 31.3901 35.2299 31.5066 35.1116L32.7023 33.8985L35.0794 34.8303C35.0905 34.8348 35.0966 34.8371 35.1081 34.8409C35.1667 34.8612 36.5436 35.3602 36.5436 37.0817V38.6773H36.5435Z" fill="#36B3A8" fill-opacity="0.9"/>
</svg>
