<svg width="22" height="19" viewBox="0 0 22 19" fill="none" xmlns="http://www.w3.org/2000/svg">
<path d="M21.9582 13.4029C21.9582 12.5648 21.4207 11.8502 20.6724 11.5848V4.93296L22 4.40235L10.9857 0L0 4.40235L5.19997 6.48615V9.54556C5.19997 10.4887 5.86117 11.3387 7.06176 11.939C8.12072 12.4685 9.51436 12.7601 10.986 12.7601C12.4577 12.7601 13.8514 12.4685 14.9103 11.939C16.1109 11.3387 16.7721 10.4887 16.7721 9.54556V6.49191L19.3866 5.44691V11.5848C18.6383 11.8502 18.1008 12.5648 18.1008 13.403C18.1008 14.1697 18.5505 14.8333 19.2001 15.1439L18.1338 18.3428L19.3536 18.7494L20.0295 16.7218L20.7054 18.7494L21.9252 18.3428L20.8589 15.1439C21.5084 14.8332 21.9582 14.1697 21.9582 13.4029ZM15.4863 9.54551C15.4863 10.4559 13.5618 11.4742 10.9861 11.4742C8.41037 11.4742 6.48581 10.4559 6.48581 9.54551V7.00139L10.9858 8.80469L15.4864 7.00577L15.4863 9.54551ZM10.9864 7.41977L3.45661 4.40235L10.9864 1.38492L18.5356 4.40235L10.9864 7.41977ZM20.0295 14.0458C19.675 14.0458 19.3866 13.7574 19.3866 13.4029C19.3866 13.0484 19.675 12.76 20.0295 12.76C20.384 12.76 20.6724 13.0484 20.6724 13.4029C20.6724 13.7574 20.384 14.0458 20.0295 14.0458Z" fill="#BDBDBD"/>
</svg>
