<svg width="7" height="13" viewBox="0 0 7 13" fill="none" xmlns="http://www.w3.org/2000/svg">
<path d="M6.00584 12.7178C6.21384 12.9245 6.54924 12.9232 6.75594 12.7152C6.96134 12.5072 6.96004 12.1718 6.75334 11.9664L1.27514 6.53889L6.72864 1.03469C6.93534 0.82669 6.93274 0.49129 6.72604 0.28459C6.51804 0.0778905 6.18264 0.0804905 5.97594 0.28719L0.17924 6.13719C0.17014 6.14629 0.16754 6.15799 0.15974 6.16709C0.15714 6.16969 0.15454 6.16969 0.15324 6.17229C0.05054 6.27499 -0.00015974 6.41019 -0.00015974 6.54539C-0.00015974 6.68189 0.0518408 6.81839 0.157141 6.92109L6.00584 12.7178Z" fill="#828282"/>
</svg>
