<svg width="58" height="57" viewBox="0 0 58 57" fill="none" xmlns="http://www.w3.org/2000/svg">
<path fill-rule="evenodd" clip-rule="evenodd" d="M36.3657 1.47754C43.7611 3.40851 49.9422 8.03011 53.7703 14.4912C57.2411 20.3492 58.4132 27.2261 57.0708 33.8546C55.7409 40.4198 52.0484 46.2993 46.6736 50.4099C46.1869 50.7822 45.4831 50.6995 45.1013 50.2253C44.7193 49.7511 44.8042 49.0652 45.2908 48.6932C52.7355 42.9994 56.2576 33.945 55.1368 25.1921C54.9858 25.8195 54.6699 26.3854 54.2109 26.8328L53.4862 27.539C53.2741 27.7459 52.9882 27.8586 52.6944 27.8586C52.6137 27.8586 52.5325 27.8501 52.4518 27.8327C52.0784 27.752 51.7729 27.4909 51.6421 27.1404L50.1195 23.0608C50.096 22.9978 50.0616 22.9404 50.0172 22.8896L48.6375 21.3156C48.5289 21.1917 48.3706 21.1206 48.2034 21.1206H47.6687L47.7282 21.2078C48.0245 21.6407 47.9658 22.2168 47.5884 22.5847C46.1109 24.0242 44.2938 25.1575 42.3334 25.8621L41.4895 26.1652C40.9616 26.3555 40.37 26.1331 40.1094 25.6464L37.2113 20.2371C37.1278 20.0811 37.0841 19.9078 37.0841 19.732V18.9672L35.5205 17.5129L33.8714 16.9481C33.288 16.7483 32.9812 16.1255 33.1863 15.5568C33.3912 14.9883 34.0303 14.689 34.6141 14.8891L36.4905 15.5317C36.6405 15.5831 36.7776 15.6649 36.8926 15.7719L38.9771 17.711C39.1986 17.9167 39.3238 18.2021 39.3238 18.5003V19.4642L41.6387 23.7851C42.9826 23.2916 44.2448 22.5598 45.3361 21.6454L45.1652 21.3954C44.8326 20.9096 44.8017 20.2877 45.0845 19.7729C45.3673 19.2581 45.9152 18.9381 46.5147 18.9381H48.2034C49.0267 18.9381 49.8055 19.2879 50.3404 19.898L51.7201 21.472C51.9393 21.722 52.1091 22.0057 52.2244 22.315L52.9978 24.3876C52.9981 24.3788 52.9984 24.3701 52.9985 24.3613C53.0124 23.5525 53.3754 22.7797 53.9951 22.241L54.4698 21.8284C53.8883 19.6793 53.0135 17.5781 51.8309 15.5822C47.3913 8.08904 39.6435 3.59218 31.4126 2.82924L28.1913 6.76659C28.06 6.92712 27.8848 7.04825 27.6861 7.11613L20.4398 9.59167L18.7964 13.4734L20.4668 15.7534C21.3828 14.3128 23.0171 13.3975 24.8018 13.3975H25.4385C26.0568 13.3975 26.5583 13.8862 26.5583 14.4887C26.5583 15.0912 26.0568 15.5799 25.4385 15.5799H24.8018C23.5997 15.5799 22.5192 16.3207 22.1131 17.4233L22.0855 17.4981C22.6205 17.4396 23.1612 17.4206 23.6504 17.4037C23.9619 17.393 24.2563 17.3829 24.489 17.3639C24.8987 17.3299 26.9754 17.229 27.601 18.5185C27.7119 18.747 27.8177 19.1129 27.7008 19.5689L27.7224 19.583C28.0694 19.8083 28.6332 20.1745 29.0432 20.3662C29.1646 20.0777 29.3719 19.8981 29.4419 19.8435C29.7068 19.6365 30.0637 19.4926 30.6356 19.362C30.8491 19.3131 31.0728 19.3265 31.279 19.4007C31.5251 19.4892 31.8981 19.5877 32.2933 19.6919L32.2942 19.6921C33.4691 20.0022 34.8006 20.3536 35.507 21.083C36.2929 21.8947 36.7547 23.0592 37.162 24.0866L37.1621 24.0867L37.1621 24.0868L37.1623 24.0872C37.3163 24.4755 37.4618 24.8423 37.6073 25.1455C37.6873 25.3119 37.7662 25.4833 37.8461 25.6569L37.8464 25.6575L37.8467 25.6582L37.8512 25.6678L37.8512 25.6679L37.8512 25.668C38.2612 26.559 38.6851 27.4802 39.378 27.9216C39.5349 28.0215 40.0273 28.0952 40.354 28.1441L40.3541 28.1441L40.3555 28.1443C41.1826 28.2678 42.2122 28.4217 42.6173 29.3373C43.0305 30.2711 42.3628 31.2131 42.1433 31.5229L42.1432 31.523C41.6416 32.2306 40.9927 32.8195 40.3651 33.3891C38.9172 34.7029 38.3184 35.3913 38.6608 36.4676C39.0676 37.7469 39.4518 38.9551 37.9601 40.5367C37.872 40.6301 37.7899 40.7155 37.7128 40.7952L37.7118 40.7963C37.2702 41.2547 37.1366 41.3933 36.9529 41.9573C36.7109 42.7001 36.3374 43.1099 36.0372 43.4393L36.0369 43.4397L36.0364 43.4402C35.8873 43.6039 35.7695 43.7332 35.6695 43.9C35.6043 44.0089 35.57 44.1752 35.5266 44.3858L35.5263 44.3876C35.4389 44.8129 35.3192 45.3951 34.8331 45.9766C34.0593 46.9026 32.3746 48.3632 30.7603 48.3633C30.4285 48.3634 30.1002 48.3017 29.7829 48.1612C29.1771 47.8927 28.4223 47.2259 27.4153 44.3144C27.2903 43.9526 27.0996 43.5432 26.8975 43.1095L26.897 43.1086C26.2743 41.7722 25.5685 40.2572 26.0749 38.7299C26.1041 38.6413 26.1332 38.5549 26.1618 38.4702C26.4951 37.4804 26.6472 37.0287 26.2979 36.213C26.2429 36.0846 26.0643 35.8932 25.8918 35.7082L25.8917 35.7081C25.5445 35.3358 25.1124 34.8723 24.9452 34.2018C24.8408 33.7826 24.8432 33.4155 24.8453 33.1204C24.8483 32.6567 24.8345 32.6308 24.6847 32.4941C24.3767 32.2132 24.0725 32.2363 23.1124 32.4678C22.7642 32.5518 22.4044 32.6386 22.0184 32.6826C19.6495 32.9542 17.43 32.0263 16.0838 30.2011C14.6915 28.3134 14.4792 25.7944 15.53 23.6272C16.0078 22.6419 16.6805 21.9043 17.331 21.1911C17.4554 21.0549 17.5808 20.9174 17.7061 20.7766C17.8502 20.615 18.0586 20.3268 18.2793 20.0215L18.2794 20.0214L18.2796 20.021C18.7833 19.3245 19.2049 18.7636 19.6381 18.3785L16.6134 14.2498C16.3893 13.9438 16.3426 13.5472 16.4896 13.1997L18.5606 8.30752C18.6823 8.02007 18.9242 7.79679 19.2253 7.69398L26.641 5.16072L28.6408 2.71629C24.2462 2.75874 19.805 3.86828 15.7354 6.15785C14.6262 6.78176 13.5825 7.47408 12.6037 8.22393C13.5075 8.77275 14.23 9.58708 14.6437 10.5652C15.3451 12.2236 14.9867 14.1424 13.7309 15.454L12.502 16.7371L9.45316 21.9236C9.37309 22.0598 9.26378 22.1776 9.13275 22.2689L7.16591 23.6394L8.53907 25.602C8.75421 25.9095 8.79374 26.3025 8.64389 26.6447C8.49405 26.9869 8.17565 27.2313 7.79901 27.2928C7.78971 27.2943 6.84986 27.4476 5.90508 27.5837C4.90889 27.7271 4.30558 27.8062 3.89803 27.8063C3.45454 27.8063 3.24332 27.7125 3.01014 27.5056C2.92906 27.4335 2.85985 27.3504 2.80396 27.2597C2.75883 27.2141 2.68547 27.1446 2.57281 27.0423C2.51524 28.0319 2.51614 29.0267 2.57673 30.0219L5.43213 29.1181C5.78133 29.0076 6.16378 29.0708 6.45598 29.2874L11.3331 32.9007L13.8608 33.382C14.8409 33.5687 15.6926 34.1572 16.1978 34.9966C16.703 35.836 16.8142 36.8475 16.503 37.7721C16.4202 38.0181 16.4198 38.2784 16.5018 38.5245L16.8566 39.5885C17.45 41.3688 16.4465 43.2878 14.6196 43.8662L14.1361 44.0192L13.1327 49.1227C20.1999 54.2918 29.6591 55.7788 38.3969 52.5062C38.974 52.2896 39.622 52.5706 39.844 53.1332C40.066 53.6958 39.7779 54.3271 39.2006 54.5433C35.9179 55.7726 32.4451 56.3888 28.966 56.3888C25.7662 56.3888 22.5615 55.8679 19.4916 54.8242C13.0155 52.6221 7.55777 48.2175 4.12392 42.4218C0.295856 35.9608 -0.72105 28.4337 1.26046 21.2275C3.24197 14.0212 7.98492 7.99802 14.6154 4.26781C21.246 0.537592 28.9705 -0.45343 36.3657 1.47754ZM10.1846 34.7916L5.56674 31.3702L2.81012 32.243C3.28162 35.3593 4.35138 38.4413 6.06355 41.3308C7.46695 43.6994 9.19591 45.7751 11.1651 47.5314L12.0608 42.9753C12.1375 42.5848 12.4263 42.2657 12.8146 42.1428L13.9274 41.7904C14.5798 41.5838 14.9384 40.8984 14.7264 40.2626L14.3716 39.1988C14.1417 38.5094 14.1428 37.7807 14.3746 37.0918C14.4873 36.7566 14.4488 36.4047 14.2657 36.1005C14.0825 35.7963 13.7862 35.5915 13.431 35.5239L10.6477 34.9939C10.4795 34.962 10.3211 34.8928 10.1846 34.7916ZM10.776 15.3404L12.0934 13.965C12.7531 13.276 12.9414 12.2679 12.573 11.3968C12.2455 10.6223 11.5751 10.0285 10.7582 9.77785C6.49215 13.7224 3.77966 18.89 2.87015 24.3752C3.42161 24.8455 3.79153 25.1673 4.05774 25.4083C4.12885 25.4727 4.19762 25.535 4.26336 25.5964C4.60539 25.5601 5.11978 25.4916 5.69296 25.4084L4.69857 23.9871C4.35564 23.4968 4.47727 22.8297 4.9725 22.4847L7.63135 20.632L10.6229 15.5426C10.6658 15.4697 10.7172 15.4018 10.776 15.3404ZM23.7295 19.585H23.7295H23.7294C22.883 19.6143 21.7238 19.6544 21.2243 19.9283C20.9791 20.0768 20.4146 20.8576 20.1112 21.2773L20.1107 21.2779C19.8566 21.6296 19.6163 21.9618 19.3979 22.2071C19.2723 22.3482 19.1466 22.486 19.022 22.6226L19.0218 22.6229L19.0054 22.6409C18.41 23.2935 17.8958 23.8574 17.5555 24.5592C16.8524 26.0096 16.9855 27.6833 17.9029 28.9271C18.7798 30.1162 20.1844 30.6946 21.7577 30.515C22.0021 30.487 22.2777 30.4207 22.5694 30.3504L22.5749 30.3491C23.5314 30.1186 24.9765 29.7704 26.2159 30.9007C27.0948 31.7028 27.0891 32.5643 27.0853 33.1345V33.1347C27.0838 33.3461 27.0826 33.5286 27.122 33.6868C27.1544 33.8164 27.3644 34.0417 27.5497 34.2404L27.5511 34.2419C27.8372 34.5488 28.1613 34.8967 28.365 35.3725C29.0352 36.9375 28.6735 38.0123 28.2902 39.1505C28.2627 39.232 28.2347 39.3154 28.2063 39.4008C27.9665 40.1242 28.4596 41.1828 28.9365 42.2064L28.9368 42.207C29.1531 42.6712 29.3767 43.1511 29.538 43.6176C30.192 45.5092 30.6249 46.0558 30.7444 46.1807C30.8491 46.1868 31.1564 46.1422 31.6828 45.8166C32.2491 45.466 32.8008 44.9522 33.0966 44.5984C33.2265 44.443 33.2641 44.2811 33.3305 43.9586C33.3978 43.6309 33.4818 43.223 33.7358 42.7993C33.9478 42.4459 34.1776 42.1936 34.3622 41.9911L34.3622 41.991L34.3623 41.9909L34.3623 41.9909C34.5931 41.7377 34.7203 41.5982 34.8184 41.2971C35.1561 40.2605 35.5641 39.8372 36.0806 39.3014L36.0806 39.3013C36.1524 39.2269 36.229 39.1475 36.3112 39.0603C36.9143 38.421 36.8969 38.2935 36.5218 37.114C35.7272 34.6161 37.4526 33.0503 38.8389 31.7922L38.8399 31.7914C39.3837 31.2979 39.8984 30.8308 40.2599 30.3394C40.1741 30.3256 40.0897 30.313 40.016 30.3019L40.0151 30.3018C39.4058 30.2107 38.7156 30.1075 38.1524 29.7488C36.9098 28.9573 36.3241 27.6842 35.8074 26.561L35.7901 26.5234L35.7898 26.5229L35.7896 26.5224C35.7191 26.3693 35.6495 26.2181 35.5788 26.071C35.4004 25.6994 35.2414 25.2987 35.073 24.8741L35.0726 24.8729C34.7395 24.033 34.3621 23.0813 33.8779 22.5811C33.6052 22.2996 32.371 21.9739 31.7078 21.799L31.6939 21.7953C31.5059 21.7456 31.3225 21.6972 31.1478 21.6485C31.0685 21.7946 30.9618 21.9158 30.8481 22.0061C30.8364 22.0166 30.8253 22.0278 30.8139 22.0392L30.8006 22.0525L30.7987 22.0543C30.5957 22.2558 30.1244 22.7235 29.2794 22.6701C28.3473 22.6122 27.3552 21.9678 26.48 21.3992L26.4799 21.3992C26.1704 21.1981 25.878 21.0081 25.6679 20.8985C25.3579 20.7369 25.1436 20.4428 25.0898 20.1042C25.0591 19.9117 25.082 19.7176 25.1527 19.5408C24.9945 19.5288 24.8267 19.5265 24.6756 19.5389C24.3894 19.5622 24.0688 19.5734 23.7296 19.585H23.7295ZM42.1572 50.7552C42.6925 50.4529 43.3775 50.6304 43.6878 51.1514C43.998 51.6728 43.816 52.3407 43.2811 52.6432L43.238 52.6674C43.0612 52.7674 42.8676 52.8151 42.677 52.8151C42.2909 52.8151 41.9151 52.6201 41.7074 52.2712C41.3972 51.7498 41.5792 51.0819 42.114 50.7795L42.1572 50.7552ZM46.1915 38.0846L45.6527 36.1056C45.535 35.6734 45.1587 35.3549 44.7032 35.3019C44.2471 35.25 43.8049 35.4722 43.5859 35.8651C43.4632 36.0856 43.3527 36.3191 43.2458 36.5449C43.0661 36.9248 42.8801 37.3177 42.6867 37.5345C42.5781 37.6563 42.299 37.7876 42.0293 37.9144C41.3846 38.2176 40.5015 38.6329 40.1642 39.6807C39.9548 40.3307 40.0329 40.845 40.0901 41.2204C40.1394 41.5459 40.1509 41.6588 40.0614 41.8635L40.0502 41.8889C39.6937 42.704 39.0305 44.2215 39.9605 45.5116C40.624 46.4322 41.3218 46.6689 41.8639 46.6689C41.9698 46.6693 42.0699 46.6602 42.1625 46.6455C43.3048 46.4636 44.1636 45.3057 44.8653 43.0012L46.1826 38.6751C46.2412 38.4827 46.2443 38.2784 46.1915 38.0846ZM42.7183 42.3804C42.3606 43.5553 42.0441 44.1038 41.8615 44.3469C41.8404 44.3207 41.8176 44.291 41.7931 44.2571C41.5792 43.9601 41.8989 43.2287 42.1105 42.7445L42.1106 42.7444L42.1106 42.7442L42.122 42.7187C42.4631 41.9385 42.3722 41.3392 42.3058 40.9014L42.3056 40.9005C42.263 40.6202 42.2477 40.4997 42.3011 40.3341C42.345 40.198 42.6074 40.066 43.0028 39.88L43.0069 39.8781L43.007 39.8781C43.1811 39.7961 43.3726 39.7059 43.5658 39.597L42.7183 42.3804ZM30.4375 13.4581L30.5131 13.4839C31.0967 13.6833 31.4039 14.306 31.1992 14.8748C31.0375 15.3239 30.6047 15.6051 30.1424 15.6051C30.0193 15.6051 29.8944 15.5852 29.7717 15.5433L29.6962 15.5176C29.1126 15.3181 28.8054 14.6955 29.0102 14.1267C29.2149 13.558 29.8544 13.2591 30.4375 13.4581Z" fill="#36B3A8" fill-opacity="0.9"/>
</svg>
