<svg width="7" height="13" viewBox="0 0 7 13" fill="none" xmlns="http://www.w3.org/2000/svg">
<path d="M0.902364 12.7178C0.694364 12.9245 0.358964 12.9232 0.152264 12.7152C-0.0531356 12.5072 -0.0518356 12.1718 0.154864 11.9664L5.63306 6.53889L0.179564 1.03469C-0.0271355 0.82669 -0.0245355 0.49129 0.182164 0.28459C0.390164 0.0778905 0.725564 0.0804905 0.932264 0.28719L6.72896 6.13719C6.73806 6.14629 6.74066 6.15799 6.74846 6.16709C6.75106 6.16969 6.75366 6.16969 6.75496 6.17229C6.85766 6.27499 6.90836 6.41019 6.90836 6.54539C6.90836 6.68189 6.85636 6.81839 6.75106 6.92109L0.902364 12.7178Z" fill="#828282"/>
</svg>
