<svg width="123" height="123" viewBox="0 0 123 123" fill="none" xmlns="http://www.w3.org/2000/svg">
<path d="M72.7117 41.1633C69.717 38.1685 65.7353 36.5193 61.5002 36.5193C57.2652 36.5193 53.2833 38.1685 50.2887 41.1633C47.2937 44.158 45.6445 48.1397 45.6445 52.3748C45.6445 56.6098 47.2937 60.5915 50.2885 63.5863C53.3796 66.6771 57.4398 68.2228 61.5 68.2228C65.5602 68.2228 69.6204 66.6771 72.7115 63.5863C75.7063 60.5915 77.3555 56.6098 77.3555 52.3748C77.3555 48.1397 75.7063 44.158 72.7117 41.1633ZM50.4492 52.3748C50.4492 49.423 51.5987 46.6478 53.6859 44.5609C55.7731 42.4737 58.5482 41.324 61.5 41.324C63.6335 41.324 65.6731 41.9274 67.4287 43.0484L52.1736 58.3035C51.0527 56.5476 50.4492 54.508 50.4492 52.3748ZM69.3143 60.1889C65.589 63.9142 59.8453 64.4158 55.5732 61.6995L70.8266 46.446C71.9476 48.2019 72.551 50.2415 72.551 52.3748C72.5508 55.3265 71.4015 58.1017 69.3143 60.1889Z" fill="white"/>
<path d="M101.636 86.4676C101.189 86.0207 100.569 85.7637 99.9375 85.7637C99.3057 85.7637 98.6859 86.0205 98.239 86.4676C97.7922 86.9144 97.5352 87.5342 97.5352 88.166C97.5352 88.7978 97.7922 89.4176 98.239 89.8642C98.6859 90.3111 99.3057 90.5684 99.9375 90.5684C100.569 90.5684 101.189 90.3113 101.636 89.8642C102.083 89.4176 102.34 88.7978 102.34 88.166C102.34 87.5342 102.083 86.9144 101.636 86.4676Z" fill="white"/>
<path d="M99.9375 80.1585C101.264 80.1585 102.34 79.0828 102.34 77.7562V76.8635C102.34 70.4437 98.5398 64.6322 92.6589 62.0578L88.0353 60.0339C88.277 57.527 88.4132 54.8825 88.4132 52.1006C88.4132 34.2524 81.4916 21.1709 75.6854 13.34C69.3826 4.83952 63.1014 0.583289 62.8371 0.406477C62.0283 -0.135492 60.9722 -0.135492 60.1633 0.406477C59.8991 0.583289 53.6179 4.83952 47.3151 13.34C41.5087 21.1709 34.5873 34.2524 34.5873 52.1006C34.5873 54.8825 34.7235 57.527 34.9652 60.0339L30.3416 62.0578C24.4604 64.6322 20.6602 70.4437 20.6602 76.8635V101.139C20.6602 101.967 21.0863 102.736 21.7883 103.175C22.1765 103.418 22.6188 103.541 23.0627 103.541C23.4212 103.541 23.7806 103.461 24.113 103.299L46.4596 92.4338C48.1865 94.8123 49.4232 96.0399 49.5121 96.1271C49.9613 96.5677 50.5653 96.8145 51.1942 96.8145H59.0977V101.139C59.0977 102.465 60.1732 103.541 61.5 103.541C62.8268 103.541 63.9023 102.465 63.9023 101.139V96.8145H71.8056C72.4347 96.8145 73.0387 96.5677 73.4877 96.1271C73.5766 96.0402 74.8135 94.8123 76.5401 92.4338L98.8867 103.299C99.2192 103.461 99.5786 103.541 99.937 103.541C100.381 103.541 100.823 103.418 101.211 103.175C101.914 102.736 102.34 101.967 102.34 101.139V97.4552C102.34 96.1286 101.264 95.0528 99.9375 95.0528C98.6623 95.0528 97.6192 96.0467 97.54 97.3017L79.1923 88.3808C79.8018 87.3502 80.4276 86.2189 81.0527 84.9812C83.3695 80.3944 85.9926 73.6871 87.397 64.9993L90.7322 66.4592C94.865 68.2681 97.5352 72.3521 97.5352 76.8635V77.7562C97.5352 79.0828 98.6107 80.1585 99.9375 80.1585ZM51.0604 16.3559C55.2181 10.7123 59.4237 7.04415 61.5026 5.39903C63.5578 7.02181 67.6865 10.6191 71.8258 16.2019C73.3945 18.3174 75.0504 20.8504 76.61 23.7837H46.3604C47.7283 21.2314 49.2937 18.7537 51.0604 16.3559ZM25.4648 97.2995V76.8635C25.4648 72.3523 28.1353 68.2684 32.268 66.4594L35.6032 64.9995C37.0074 73.6873 39.6307 80.3947 41.9473 84.9815C42.5724 86.2192 43.1982 87.3504 43.8077 88.381L25.4648 97.2995ZM76.8702 82.6034C74.3924 87.5611 71.888 90.7079 70.7526 92.0098H63.9023V82.2402C63.9023 80.9136 62.8268 79.8378 61.5 79.8378C60.1732 79.8378 59.0977 80.9136 59.0977 82.2402V92.0098H52.2457C49.5801 88.9571 39.3917 75.7368 39.3917 52.1003C39.3917 43.764 40.9576 35.8989 44.0583 28.5879H78.8987C81.6047 34.9913 83.609 42.8537 83.609 52.1003C83.6085 66.1687 79.9442 76.4534 76.8702 82.6034Z" fill="white"/>
<path d="M86.1415 108.571C84.9678 108.571 83.8341 108.743 82.7607 109.058C80.3958 105.514 76.3943 103.322 72.0302 103.322C67.6954 103.322 63.856 105.474 61.5158 108.762C59.1757 105.474 55.3363 103.322 51.0015 103.322C46.6374 103.322 42.6361 105.514 40.271 109.058C39.1976 108.743 38.0639 108.571 36.8901 108.571C30.2587 108.571 24.8633 113.966 24.8633 120.598C24.8633 121.924 25.9388 123 27.2656 123C28.5924 123 29.668 121.924 29.668 120.598C29.668 116.616 32.9078 113.375 36.8901 113.375C40.8725 113.375 44.1123 116.615 44.1123 120.598C44.1123 121.924 45.1878 123 46.5146 123C47.8415 123 48.917 121.924 48.917 120.598C48.917 116.874 47.2161 113.541 44.551 111.334C46.0599 109.343 48.4288 108.127 51.0015 108.127C55.4653 108.127 59.0969 111.758 59.0969 116.222C59.0969 117.549 60.1724 118.624 61.4993 118.624C61.5048 118.624 61.5103 118.624 61.5158 118.624C61.5214 118.624 61.5269 118.624 61.5324 118.624C62.8592 118.624 63.9347 117.549 63.9347 116.222C63.9347 111.758 67.5664 108.127 72.0302 108.127C74.6028 108.127 76.9718 109.343 78.4807 111.334C75.8155 113.541 74.1149 116.874 74.1149 120.598C74.1149 121.924 75.1905 123 76.5173 123C77.8441 123 78.9196 121.924 78.9196 120.598C78.9196 116.616 82.1594 113.375 86.1418 113.375C90.1241 113.375 93.3639 116.615 93.3639 120.598C93.3639 121.924 94.4395 123 95.7663 123C97.0931 123 98.1686 121.924 98.1686 120.598C98.1681 113.966 92.773 108.571 86.1415 108.571Z" fill="white"/>
<path d="M63.1985 72.8538C62.7516 72.407 62.1318 72.1499 61.5 72.1499C60.8682 72.1499 60.2484 72.4067 59.8015 72.8538C59.3547 73.3006 59.0977 73.9204 59.0977 74.5522C59.0977 75.1841 59.3547 75.8039 59.8015 76.2505C60.2484 76.6997 60.8682 76.9546 61.5 76.9546C62.1318 76.9546 62.7516 76.6997 63.1985 76.2505C63.6453 75.8039 63.9023 75.1841 63.9023 74.5522C63.9023 73.9204 63.6453 73.3006 63.1985 72.8538Z" fill="white"/>
</svg>
