<svg width="15" height="15" viewBox="0 0 15 15" fill="none" xmlns="http://www.w3.org/2000/svg">
    <path fill-rule="evenodd" clip-rule="evenodd" d="M14.7074 13.3L10.8955 9.47C11.6208 8.45846 12.0093 7.24449 12.006 6C12.006 2.69 9.31469 0 6.00302 0C2.69136 0 0 2.69 0 6C0 9.31 2.69136 12 6.00302 12C7.30368 12 8.48427 11.59 9.47477 10.89L13.3067 14.7C13.4968 14.9 13.7569 15 14.0071 15C14.2572 15 14.5273 14.91 14.7074 14.7C14.8002 14.6075 14.8737 14.4976 14.9239 14.3766C14.9742 14.2557 15 14.126 15 13.995C15 13.864 14.9742 13.7343 14.9239 13.6134C14.8737 13.4924 14.8002 13.3825 14.7074 13.29V13.3ZM6.00302 10.7C3.41172 10.7 1.30066 8.59 1.30066 6C1.30066 3.41 3.41172 1.3 6.00302 1.3C8.59433 1.3 10.7054 3.41 10.7054 6C10.7054 8.59 8.59433 10.7 6.00302 10.7Z" fill="#828282"/>
</svg>
